<svg xmlns="http://www.w3.org/2000/svg" viewBox="0 0 640 400" role="img" aria-labelledby="title">
  <title id="title">Store interface design illustration</title>
  <defs>
    <linearGradient id="bg" x1="0" y1="0" x2="1" y2="1">
      <stop offset="0" stop-color="#f5f7ff"/>
      <stop offset="1" stop-color="#e7fbff"/>
    </linearGradient>
    <linearGradient id="hero" x1="0" y1="0" x2="1" y2="1">
      <stop offset="0" stop-color="#5b5fca"/>
      <stop offset="1" stop-color="#38bdf8"/>
    </linearGradient>
    <filter id="shadow" x="-20%" y="-20%" width="140%" height="140%">
      <feDropShadow dx="0" dy="18" stdDeviation="18" flood-color="#4d51b4" flood-opacity=".16"/>
    </filter>
  </defs>
  <rect width="640" height="400" rx="42" fill="url(#bg)"/>
  <g filter="url(#shadow)">
    <rect x="108" y="76" width="424" height="248" rx="30" fill="#fff"/>
    <rect x="140" y="112" width="360" height="84" rx="24" fill="url(#hero)"/>
    <circle cx="174" cy="148" r="18" fill="#fff" opacity=".82"/>
    <rect x="214" y="132" width="176" height="14" rx="7" fill="#fff" opacity=".92"/>
    <rect x="214" y="160" width="110" height="12" rx="6" fill="#fff" opacity=".68"/>
    <rect x="140" y="224" width="96" height="64" rx="18" fill="#eef0ff"/>
    <rect x="272" y="224" width="96" height="64" rx="18" fill="#e8fbf5"/>
    <rect x="404" y="224" width="96" height="64" rx="18" fill="#fff0e8"/>
  </g>
  <path d="M462 90l42-42M502 102l28-6M450 52l-8 30" stroke="#f59e0b" stroke-width="12" stroke-linecap="round"/>
</svg>
